<?xml version="1.0" encoding="utf-8"?>
<!-- Generator: Adobe Illustrator 18.0.0, SVG Export Plug-In . SVG Version: 6.00 Build 0)  -->
<!DOCTYPE svg PUBLIC "-//W3C//DTD SVG 1.1//EN" "http://www.w3.org/Graphics/SVG/1.1/DTD/svg11.dtd">
<svg version="1.1" id="Layer_1" xmlns="http://www.w3.org/2000/svg" xmlns:xlink="http://www.w3.org/1999/xlink" x="0px" y="0px"
	 viewBox="0 0 102.9 101.6" enable-background="new 0 0 102.9 101.6" xml:space="preserve">
<polygon fill="none" stroke="#F84A3F" stroke-width="2" stroke-miterlimit="10" points="101.9,79.4 94.4,97.8 86.8,79.4 86.8,34.9 
	101.9,34.9 "/>
<polyline fill="none" stroke="#333333" stroke-width="2" stroke-miterlimit="10" points="54.7,11 75.5,11 75.5,100.6 1,100.6 1,11 
	21.6,11 "/>
<line fill="none" stroke="#F84A3F" stroke-width="2" stroke-miterlimit="10" x1="12.4" y1="35.1" x2="64.3" y2="35.1"/>
<line fill="none" stroke="#F84A3F" stroke-width="2" stroke-miterlimit="10" x1="12.4" y1="47" x2="64.3" y2="47"/>
<line fill="none" stroke="#F84A3F" stroke-width="2" stroke-miterlimit="10" x1="12.4" y1="58.9" x2="64.3" y2="58.9"/>
<line fill="none" stroke="#F84A3F" stroke-width="2" stroke-miterlimit="10" x1="12.4" y1="70.8" x2="64.3" y2="70.8"/>
<line fill="none" stroke="#F84A3F" stroke-width="2" stroke-miterlimit="10" x1="12.4" y1="82.8" x2="64.3" y2="82.8"/>
<path fill="none" stroke="#333333" stroke-width="2" stroke-miterlimit="10" d="M53.4,5.9H43.1c0-2.7-2.2-4.8-4.8-4.8
	c-2.7,0-4.8,2.2-4.8,4.8H23.1l-3.3,12.7h36.9L53.4,5.9z"/>
<line fill="none" stroke="#F84A3F" stroke-width="2" stroke-miterlimit="10" x1="86.8" y1="79.4" x2="101.9" y2="79.4"/>
</svg>
