<?xml version="1.0" encoding="utf-8"?>
<!-- Generator: Adobe Illustrator 18.0.0, SVG Export Plug-In . SVG Version: 6.00 Build 0)  -->
<!DOCTYPE svg PUBLIC "-//W3C//DTD SVG 1.1//EN" "http://www.w3.org/Graphics/SVG/1.1/DTD/svg11.dtd">
<svg fill="#ff584e" version="1.1" id="Layer_1" xmlns="http://www.w3.org/2000/svg" xmlns:xlink="http://www.w3.org/1999/xlink" x="0px" y="0px"
	 viewBox="0 0 47.2 67.9" enable-background="new 0 0 47.2 67.9" xml:space="preserve">
<polygon fill="none" stroke="#ff584e" stroke-width="2" stroke-miterlimit="10" points="17.4,46.2 9.8,46.2 9,44.2 2,59.9 10.8,56 
	14.2,65.2 21.3,48.9 "/>
<polygon fill="none" stroke="#ff584e" stroke-width="2" stroke-miterlimit="10" points="37.5,46.2 29.8,46.2 26,49 33.1,65.2 
	36.5,56 45.3,59.9 38.3,44.2 "/>
<path fill="none" stroke="#ff584e" stroke-width="2" stroke-miterlimit="10" d="M43.6,14.4l-5.5-3.1L36,5.2h-6.8l-5.5-4l-5.5,4h-6.8
	l-2.1,6.2L3.6,15l2.1,6.3l-2.1,6.4l5.5,5l2.1,7.6h6.8l5.5,4l5.5-4H36l2.1-7.6l5.5-4.6l-2.1-6.8L43.6,14.4z M30.2,31l-6.5-4.8
	l-6.5,4.7l2.5-6.6L13,20.2h8.1l2.5-7l2.5,7h8.1l-6.5,4.1L30.2,31z"/>
</svg>
