<?xml version="1.0" encoding="utf-8"?>
<!-- Generator: Adobe Illustrator 18.0.0, SVG Export Plug-In . SVG Version: 6.00 Build 0)  -->
<!DOCTYPE svg PUBLIC "-//W3C//DTD SVG 1.1//EN" "http://www.w3.org/Graphics/SVG/1.1/DTD/svg11.dtd">
<svg version="1.1" id="Layer_1" xmlns="http://www.w3.org/2000/svg" xmlns:xlink="http://www.w3.org/1999/xlink" x="0px" y="0px"
	 viewBox="0 0 101.2 42.9" enable-background="new 0 0 101.2 42.9" xml:space="preserve">
<g>
	<path fill="#FFFFFF" d="M52.1,23.8c0,1-0.2,1.9-0.6,2.6c-0.4,0.8-0.9,1.4-1.5,1.9c-0.7,0.6-1.6,1-2.5,1.2c-0.9,0.2-2,0.4-3.4,0.4
		h-7V10.1H43c1.4,0,2.5,0.1,3.2,0.2c0.7,0.1,1.4,0.3,2.1,0.7c0.7,0.4,1.3,0.9,1.6,1.5c0.3,0.6,0.5,1.3,0.5,2.1
		c0,0.9-0.2,1.7-0.7,2.4c-0.5,0.7-1.1,1.2-1.9,1.6v0.1c1.3,0.3,2.4,0.9,3.2,1.8C51.7,21.3,52.1,22.4,52.1,23.8z M47.7,14.9
		c0-0.5-0.1-0.9-0.2-1.2c-0.2-0.3-0.4-0.6-0.8-0.8c-0.4-0.2-0.9-0.4-1.5-0.4c-0.6-0.1-1.3-0.1-2.2-0.1h-3.1v5.7h3.4
		c0.8,0,1.5,0,2-0.1c0.5-0.1,0.9-0.3,1.4-0.5c0.4-0.3,0.7-0.6,0.9-1C47.6,16,47.7,15.5,47.7,14.9z M49.4,23.9c0-0.8-0.1-1.4-0.4-1.9
		c-0.2-0.5-0.7-0.9-1.3-1.2c-0.4-0.2-0.9-0.4-1.5-0.4c-0.6-0.1-1.3-0.1-2.2-0.1h-4.1v7.4h3.5c1.2,0,2.1-0.1,2.8-0.2
		c0.7-0.1,1.3-0.3,1.8-0.7c0.5-0.3,0.9-0.7,1.1-1.2C49.3,25.2,49.4,24.6,49.4,23.9z"/>
	<path fill="#FFFFFF" d="M66.5,29.9H64v-1.6c-0.8,0.7-1.6,1.2-2.4,1.5c-0.8,0.4-1.6,0.5-2.6,0.5c-1.6,0-2.8-0.5-3.6-1.4
		c-0.9-1-1.3-2.3-1.3-4.2v-9.6h2.5v8.4c0,0.8,0,1.4,0.1,1.9c0.1,0.5,0.2,1,0.5,1.4c0.2,0.4,0.5,0.7,0.9,0.8c0.4,0.2,0.9,0.3,1.7,0.3
		c0.6,0,1.4-0.2,2.1-0.5c0.8-0.3,1.5-0.8,2.1-1.3V15.1h2.5V29.9z"/>
	<path fill="#FFFFFF" d="M78,17.8h-0.1c-0.4-0.1-0.7-0.2-1.1-0.2c-0.4,0-0.8-0.1-1.2-0.1c-0.8,0-1.5,0.2-2.2,0.5
		c-0.7,0.3-1.4,0.8-2.1,1.3v10.5h-2.5V15.1h2.5v2.2c1-0.8,1.9-1.4,2.6-1.7c0.8-0.3,1.5-0.5,2.3-0.5c0.4,0,0.7,0,0.9,0
		c0.2,0,0.5,0.1,0.9,0.1V17.8z"/>
	<path fill="#FFFFFF" d="M90.9,25.6c0,1.4-0.6,2.5-1.7,3.3c-1.1,0.9-2.7,1.3-4.6,1.3c-1.1,0-2.1-0.1-3-0.4c-0.9-0.3-1.7-0.5-2.3-0.9
		v-2.8h0.1c0.8,0.6,1.7,1.1,2.6,1.4c1,0.3,1.9,0.5,2.8,0.5c1.1,0,2-0.2,2.6-0.5c0.6-0.4,0.9-0.9,0.9-1.7c0-0.6-0.2-1-0.5-1.3
		c-0.3-0.3-1-0.6-1.9-0.8c-0.4-0.1-0.8-0.2-1.4-0.3c-0.6-0.1-1.1-0.2-1.6-0.3c-1.3-0.3-2.2-0.9-2.8-1.5c-0.5-0.7-0.8-1.5-0.8-2.5
		c0-0.6,0.1-1.2,0.4-1.7c0.3-0.5,0.6-1,1.2-1.4c0.5-0.4,1.1-0.7,1.9-1c0.8-0.2,1.6-0.4,2.6-0.4c0.9,0,1.8,0.1,2.7,0.3
		c0.9,0.2,1.7,0.5,2.3,0.8v2.7h-0.1c-0.6-0.5-1.4-0.9-2.3-1.2c-0.9-0.3-1.8-0.5-2.7-0.5c-0.9,0-1.7,0.2-2.3,0.5
		c-0.6,0.3-0.9,0.9-0.9,1.6c0,0.6,0.2,1.1,0.6,1.4c0.4,0.3,1,0.6,1.8,0.8c0.5,0.1,1,0.2,1.5,0.3s1,0.2,1.4,0.3
		c1.2,0.3,2.1,0.7,2.7,1.4C90.6,23.7,90.9,24.5,90.9,25.6z"/>
	<path fill="#FFFFFF" d="M101.2,29.8c-0.5,0.1-1,0.2-1.5,0.3c-0.6,0.1-1,0.1-1.5,0.1c-1.5,0-2.7-0.4-3.5-1.2
		c-0.8-0.8-1.2-2.1-1.2-3.9v-7.9h-1.7v-2.1h1.7v-4.3H96v4.3h5.2v2.1H96v6.8c0,0.8,0,1.4,0.1,1.8c0,0.4,0.2,0.8,0.4,1.2
		c0.2,0.4,0.5,0.6,0.8,0.8c0.3,0.2,0.9,0.2,1.6,0.2c0.4,0,0.8-0.1,1.3-0.2c0.4-0.1,0.8-0.2,1-0.3h0.1V29.8z"/>
	<path fill="#FFFFFF" d="M92.1,32.2c0,0-1.8,4.1-7,4.1c-4.6,0-6.9-4.1-6.9-4.1H37.3c0,0-0.1,0.6-0.8,2.8c-0.7,2.3-1.6,3.3-1.6,3.3
		c-4.7,4.8-8.3-0.9-12.2-4c-1.3-1-2.7-1.6-4-1.8c8.3-1,14.7-7.8,14.7-16.2c0-9-7.5-16.3-16.7-16.3C7.5,0,0,7.3,0,16.3
		c0,8.2,6.2,15,14.3,16.1c-9.4,1.9-9.9,10.5-9.9,10.5s0.2-0.4,0.8-1.4c0.6-1.1,2.3-3.5,4.1-5.1c2-1.6,6-3.5,10.2-1.9
		C23.8,36,25.3,42,31,42.2c5.9,0.2,7.5-6.7,7.8-8.6h38.3c0.8,0.8,3.1,4.1,7.9,4.1c5.3,0,7.2-3.3,7.7-4.1h8.5v-1.5H92.1z M5.4,16.3
		c0-8.5,5.1-15.4,11.3-15.4C23,0.9,28,7.8,28,16.3c0,8.5-5.1,15.4-11.3,15.4C10.5,31.7,5.4,24.8,5.4,16.3z"/>
</g>
</svg>
